<mxfile host="app.diagrams.net" modified="2023-05-10T11:28:28.733Z" agent="Mozilla/5.0 (Macintosh; Intel Mac OS X 10_15_7) AppleWebKit/605.1.15 (KHTML, like Gecko) Version/16.1 Safari/605.1.15" etag="AjzW1ebn_aJrDbBMPa3G" version="21.2.9" type="github" pages="2">
  <diagram name="Page-1" id="xRr02R-4Z6sExsO45KH3">
    <mxGraphModel dx="954" dy="624" grid="1" gridSize="10" guides="1" tooltips="1" connect="1" arrows="1" fold="1" page="1" pageScale="1" pageWidth="827" pageHeight="1169" math="0" shadow="0">
      <root>
        <mxCell id="0" />
        <mxCell id="1" parent="0" />
        <mxCell id="uaXIYo1Mo4bbP_RrZjP_-1" value="About" style="strokeWidth=1;shadow=0;dashed=0;align=center;html=1;shape=mxgraph.mockup.containers.window;align=left;verticalAlign=top;spacingLeft=8;strokeColor2=#008cff;strokeColor3=#c4c4c4;fontColor=#666666;mainText=;fontSize=17;labelBackgroundColor=none;whiteSpace=wrap;" parent="1" vertex="1">
          <mxGeometry x="80" y="40" width="680" height="520" as="geometry" />
        </mxCell>
        <mxCell id="uaXIYo1Mo4bbP_RrZjP_-2" value="&lt;b&gt;&lt;font style=&quot;font-size: 14px;&quot;&gt;About Us&lt;/font&gt;&lt;/b&gt;" style="rounded=1;whiteSpace=wrap;html=1;" parent="1" vertex="1">
          <mxGeometry x="171" y="80" width="485" height="30" as="geometry" />
        </mxCell>
        <mxCell id="uaXIYo1Mo4bbP_RrZjP_-3" value="&lt;b&gt;Why is this helpful?&lt;/b&gt;" style="rounded=1;whiteSpace=wrap;html=1;" parent="1" vertex="1">
          <mxGeometry x="171" y="200" width="489" height="30" as="geometry" />
        </mxCell>
        <mxCell id="uaXIYo1Mo4bbP_RrZjP_-4" value="&lt;b&gt;Future Features&lt;/b&gt;" style="rounded=1;whiteSpace=wrap;html=1;" parent="1" vertex="1">
          <mxGeometry x="171" y="330" width="489" height="30" as="geometry" />
        </mxCell>
        <mxCell id="uaXIYo1Mo4bbP_RrZjP_-5" value="Description" style="rounded=1;whiteSpace=wrap;html=1;" parent="1" vertex="1">
          <mxGeometry x="171" y="120" width="489" height="60" as="geometry" />
        </mxCell>
        <mxCell id="uaXIYo1Mo4bbP_RrZjP_-6" value="Description" style="rounded=1;whiteSpace=wrap;html=1;" parent="1" vertex="1">
          <mxGeometry x="171" y="250" width="489" height="60" as="geometry" />
        </mxCell>
        <mxCell id="uaXIYo1Mo4bbP_RrZjP_-7" value="Integration with Job Boards&lt;br&gt;&lt;br&gt;&lt;font style=&quot;font-size: 9px;&quot;&gt;Description&lt;/font&gt;" style="shape=mxgraph.mockup.containers.marginRect;rectMarginTop=10;strokeColor=#666666;strokeWidth=1;dashed=0;rounded=1;arcSize=5;recursiveResize=0;html=1;whiteSpace=wrap;" parent="1" vertex="1">
          <mxGeometry x="171" y="380" width="100" height="110" as="geometry" />
        </mxCell>
        <mxCell id="uaXIYo1Mo4bbP_RrZjP_-9" value="Email Notifications&lt;br&gt;&lt;br&gt;&lt;font style=&quot;font-size: 9px;&quot;&gt;Description&lt;/font&gt;" style="shape=mxgraph.mockup.containers.marginRect;rectMarginTop=10;strokeColor=#666666;strokeWidth=1;dashed=0;rounded=1;arcSize=5;recursiveResize=0;html=1;whiteSpace=wrap;" parent="1" vertex="1">
          <mxGeometry x="300" y="380" width="100" height="110" as="geometry" />
        </mxCell>
        <mxCell id="uaXIYo1Mo4bbP_RrZjP_-11" value="Application Insights&lt;br&gt;&lt;br&gt;&lt;font style=&quot;font-size: 9px;&quot;&gt;Description&lt;/font&gt;" style="shape=mxgraph.mockup.containers.marginRect;rectMarginTop=10;strokeColor=#666666;strokeWidth=1;dashed=0;rounded=1;arcSize=5;recursiveResize=0;html=1;whiteSpace=wrap;" parent="1" vertex="1">
          <mxGeometry x="430" y="380" width="100" height="110" as="geometry" />
        </mxCell>
        <mxCell id="uaXIYo1Mo4bbP_RrZjP_-13" value="Customizable Dashboard&lt;br&gt;&lt;br&gt;&lt;font style=&quot;font-size: 9px;&quot;&gt;Description&lt;/font&gt;" style="shape=mxgraph.mockup.containers.marginRect;rectMarginTop=10;strokeColor=#666666;strokeWidth=1;dashed=0;rounded=1;arcSize=5;recursiveResize=0;html=1;whiteSpace=wrap;" parent="1" vertex="1">
          <mxGeometry x="560" y="380" width="100" height="110" as="geometry" />
        </mxCell>
        <mxCell id="uaXIYo1Mo4bbP_RrZjP_-14" value="" style="html=1;verticalLabelPosition=bottom;labelBackgroundColor=#ffffff;verticalAlign=top;shadow=0;dashed=0;strokeWidth=2;shape=mxgraph.ios7.misc.right;strokeColor=#000000;" parent="1" vertex="1">
          <mxGeometry x="280" y="429" width="10" height="21" as="geometry" />
        </mxCell>
        <mxCell id="uaXIYo1Mo4bbP_RrZjP_-17" value="" style="html=1;verticalLabelPosition=bottom;labelBackgroundColor=#ffffff;verticalAlign=top;shadow=0;dashed=0;strokeWidth=2;shape=mxgraph.ios7.misc.right;strokeColor=#000000;" parent="1" vertex="1">
          <mxGeometry x="410.5" y="429" width="10" height="21" as="geometry" />
        </mxCell>
        <mxCell id="uaXIYo1Mo4bbP_RrZjP_-18" value="" style="html=1;verticalLabelPosition=bottom;labelBackgroundColor=#ffffff;verticalAlign=top;shadow=0;dashed=0;strokeWidth=2;shape=mxgraph.ios7.misc.right;strokeColor=#000000;" parent="1" vertex="1">
          <mxGeometry x="540" y="429" width="10" height="21" as="geometry" />
        </mxCell>
      </root>
    </mxGraphModel>
  </diagram>
  <diagram id="TlQu51tvzFfThhZhskvf" name="Strona-2">
    <mxGraphModel dx="954" dy="624" grid="1" gridSize="10" guides="1" tooltips="1" connect="1" arrows="1" fold="1" page="1" pageScale="1" pageWidth="827" pageHeight="1169" math="0" shadow="0">
      <root>
        <mxCell id="0" />
        <mxCell id="1" parent="0" />
        <mxCell id="tIL9ToQIKslQ7jHVoK9O-1" value="Account settings" style="strokeWidth=1;shadow=0;dashed=0;align=center;html=1;shape=mxgraph.mockup.containers.window;align=left;verticalAlign=top;spacingLeft=8;strokeColor2=#008cff;strokeColor3=#c4c4c4;fontColor=#666666;mainText=;fontSize=17;labelBackgroundColor=none;whiteSpace=wrap;" vertex="1" parent="1">
          <mxGeometry x="80" y="40" width="680" height="450" as="geometry" />
        </mxCell>
        <mxCell id="tIL9ToQIKslQ7jHVoK9O-22" value="" style="rounded=0;whiteSpace=wrap;html=1;strokeColor=default;strokeWidth=0;fontFamily=Helvetica;fontSize=12;fontColor=default;fillColor=default;" vertex="1" parent="1">
          <mxGeometry x="470" y="80" width="270" height="380" as="geometry" />
        </mxCell>
        <mxCell id="tIL9ToQIKslQ7jHVoK9O-21" value="" style="rounded=0;whiteSpace=wrap;html=1;strokeColor=default;strokeWidth=0;fontFamily=Helvetica;fontSize=12;fontColor=default;fillColor=default;" vertex="1" parent="1">
          <mxGeometry x="90" y="80" width="360" height="380" as="geometry" />
        </mxCell>
        <mxCell id="tIL9ToQIKslQ7jHVoK9O-4" value="Input" style="rounded=1;whiteSpace=wrap;html=1;shadow=1;strokeWidth=0.5;" vertex="1" parent="1">
          <mxGeometry x="100" y="290" width="340" height="40" as="geometry" />
        </mxCell>
        <mxCell id="tIL9ToQIKslQ7jHVoK9O-3" value="Input" style="rounded=1;whiteSpace=wrap;html=1;shadow=1;strokeWidth=0.5;" vertex="1" parent="1">
          <mxGeometry x="280" y="210" width="160" height="40" as="geometry" />
        </mxCell>
        <mxCell id="tIL9ToQIKslQ7jHVoK9O-5" value="Input" style="rounded=1;whiteSpace=wrap;html=1;shadow=1;strokeWidth=0.5;" vertex="1" parent="1">
          <mxGeometry x="100" y="210" width="160" height="40" as="geometry" />
        </mxCell>
        <mxCell id="tIL9ToQIKslQ7jHVoK9O-7" value="First Name" style="text;html=1;strokeColor=none;fillColor=none;align=center;verticalAlign=middle;whiteSpace=wrap;rounded=0;" vertex="1" parent="1">
          <mxGeometry x="80" y="180" width="100" height="30" as="geometry" />
        </mxCell>
        <mxCell id="tIL9ToQIKslQ7jHVoK9O-8" value="Last Name" style="text;html=1;strokeColor=none;fillColor=none;align=center;verticalAlign=middle;whiteSpace=wrap;rounded=0;" vertex="1" parent="1">
          <mxGeometry x="260" y="180" width="100" height="30" as="geometry" />
        </mxCell>
        <mxCell id="tIL9ToQIKslQ7jHVoK9O-9" value="Email Address" style="text;html=1;strokeColor=none;fillColor=none;align=center;verticalAlign=middle;whiteSpace=wrap;rounded=0;" vertex="1" parent="1">
          <mxGeometry x="90" y="260" width="100" height="30" as="geometry" />
        </mxCell>
        <mxCell id="tIL9ToQIKslQ7jHVoK9O-10" value="&lt;font size=&quot;1&quot;&gt;&lt;span style=&quot;font-size: 15px;&quot;&gt;Personal Information&lt;/span&gt;&lt;/font&gt;" style="text;html=1;strokeColor=none;fillColor=none;align=center;verticalAlign=middle;whiteSpace=wrap;rounded=0;" vertex="1" parent="1">
          <mxGeometry x="175" y="90" width="190" height="30" as="geometry" />
        </mxCell>
        <mxCell id="tIL9ToQIKslQ7jHVoK9O-11" value="&lt;font size=&quot;1&quot;&gt;&lt;span style=&quot;font-size: 15px;&quot;&gt;Change password&lt;/span&gt;&lt;/font&gt;" style="text;html=1;strokeColor=none;fillColor=none;align=center;verticalAlign=middle;whiteSpace=wrap;rounded=0;" vertex="1" parent="1">
          <mxGeometry x="520" y="90" width="190" height="30" as="geometry" />
        </mxCell>
        <mxCell id="tIL9ToQIKslQ7jHVoK9O-12" value="&lt;font style=&quot;font-size: 18px;&quot;&gt;********&lt;/font&gt;" style="rounded=1;whiteSpace=wrap;html=1;shadow=1;strokeWidth=0.5;" vertex="1" parent="1">
          <mxGeometry x="520" y="170" width="160" height="40" as="geometry" />
        </mxCell>
        <mxCell id="tIL9ToQIKslQ7jHVoK9O-13" value="&lt;font style=&quot;font-size: 18px;&quot;&gt;********&lt;/font&gt;" style="rounded=1;whiteSpace=wrap;html=1;shadow=1;strokeWidth=0.5;" vertex="1" parent="1">
          <mxGeometry x="520" y="255" width="160" height="40" as="geometry" />
        </mxCell>
        <mxCell id="tIL9ToQIKslQ7jHVoK9O-14" value="&lt;font style=&quot;font-size: 18px;&quot;&gt;********&lt;/font&gt;" style="rounded=1;whiteSpace=wrap;html=1;shadow=1;strokeWidth=0.5;" vertex="1" parent="1">
          <mxGeometry x="520" y="350" width="160" height="40" as="geometry" />
        </mxCell>
        <mxCell id="tIL9ToQIKslQ7jHVoK9O-17" value="Current Password" style="text;html=1;strokeColor=none;fillColor=none;align=center;verticalAlign=middle;whiteSpace=wrap;rounded=0;" vertex="1" parent="1">
          <mxGeometry x="520" y="140" width="100" height="30" as="geometry" />
        </mxCell>
        <mxCell id="tIL9ToQIKslQ7jHVoK9O-18" value="New Password" style="text;html=1;strokeColor=none;fillColor=none;align=left;verticalAlign=middle;whiteSpace=wrap;rounded=0;" vertex="1" parent="1">
          <mxGeometry x="520" y="225" width="100" height="30" as="geometry" />
        </mxCell>
        <mxCell id="tIL9ToQIKslQ7jHVoK9O-19" value="Current Password" style="text;html=1;strokeColor=none;fillColor=none;align=center;verticalAlign=middle;whiteSpace=wrap;rounded=0;" vertex="1" parent="1">
          <mxGeometry x="520" y="320" width="100" height="30" as="geometry" />
        </mxCell>
      </root>
    </mxGraphModel>
  </diagram>
</mxfile>
